# xmcd CD database file
#
# Track frame offsets:
#	150
#	15688
#	28127
#	41006
#	54500
#	64443
#	77666
#	88484
#	99353
#	107319
#	115955
#	126394
#
# Disc length: 1826 seconds
#
# Revision: 0
# Processed by: cddbd v1.4PL0 Copyright (c) Steve Scherf et al.
# Submitted via: CDex 1.50beta10
#
DISCID=a107200c
DTITLE=Various Artist - Country Total (Vol. 1)
DYEAR=2001
DGENRE=Country
TTITLE0=No Rompas Mi Corazón
TTITLE1=Folsom Prison Blues
TTITLE2=Ruby Don't Take Your Love To Town
TTITLE3=California Blood Lines
TTITLE4=Six Days On The Road
TTITLE5=Rose Garden
TTITLE6=Truckers Lady
TTITLE7=Lonely In Person
TTITLE8=Things To Remember
TTITLE9=Love's Gonna Live Here
TTITLE10=With Half A Heart
TTITLE11=Heaven's Just A Sin Away
EXTD=YEAR: 2001
EXTT0=
EXTT1=
EXTT2=
EXTT3=
EXTT4=
EXTT5=
EXTT6=
EXTT7=
EXTT8=
EXTT9=
EXTT10=
EXTT11=
PLAYORDER=
